<svg id="visual" viewBox="0 0 2519 1219" width="2519" height="1219" xmlns="http://www.w3.org/2000/svg" xmlns:xlink="http://www.w3.org/1999/xlink" version="1.1"><g stroke-width="1" stroke-linejoin="bevel"><path d="M1110.6 728.4L1085.6 502.6L858.7 729.4Z" fill="#082638" stroke="#082638"></path><path d="M1085.6 502.6L844.7 513.6L858.7 729.4Z" fill="#08425f" stroke="#08425f"></path><path d="M858.7 729.4L1157.6 953.2L1110.6 728.4Z" fill="#082031" stroke="#082031"></path><path d="M1410.4 468.6L1138.6 268.8L1085.6 502.6Z" fill="#09364f" stroke="#09364f"></path><path d="M1410.4 468.6L1085.6 502.6L1110.6 728.4Z" fill="#093c57" stroke="#093c57"></path><path d="M1085.6 502.6L804.7 254.8L844.7 513.6Z" fill="#082638" stroke="#082638"></path><path d="M844.7 513.6L597.8 707.4L858.7 729.4Z" fill="#041623" stroke="#041623"></path><path d="M858.7 729.4L824.7 990.2L1157.6 953.2Z" fill="#082638" stroke="#082638"></path><path d="M529.8 520.6L597.8 707.4L844.7 513.6Z" fill="#00101c" stroke="#00101c"></path><path d="M597.8 707.4L824.7 990.2L858.7 729.4Z" fill="#00101c" stroke="#00101c"></path><path d="M1138.6 268.8L804.7 254.8L1085.6 502.6Z" fill="#09364f" stroke="#09364f"></path><path d="M1424.4 756.4L1410.4 468.6L1110.6 728.4Z" fill="#092b40" stroke="#092b40"></path><path d="M1157.6 953.2L1424.4 756.4L1110.6 728.4Z" fill="#00101c" stroke="#00101c"></path><path d="M804.7 254.8L529.8 520.6L844.7 513.6Z" fill="#071b2a" stroke="#071b2a"></path><path d="M1157.6 953.2L1397.4 947.2L1424.4 756.4Z" fill="#093148" stroke="#093148"></path><path d="M1404.4 1219L1397.4 947.2L1157.6 953.2Z" fill="#08425f" stroke="#08425f"></path><path d="M1674.3 278.8L1415.4 281.8L1410.4 468.6Z" fill="#00101c" stroke="#00101c"></path><path d="M1410.4 468.6L1415.4 281.8L1138.6 268.8Z" fill="#082638" stroke="#082638"></path><path d="M300.9 740.4L574.8 1013.2L597.8 707.4Z" fill="#082638" stroke="#082638"></path><path d="M597.8 707.4L574.8 1013.2L824.7 990.2Z" fill="#041623" stroke="#041623"></path><path d="M824.7 990.2L1107.6 1219L1157.6 953.2Z" fill="#093c57" stroke="#093c57"></path><path d="M804.7 254.8L567.8 222.8L529.8 520.6Z" fill="#093148" stroke="#093148"></path><path d="M799.7 0L567.8 222.8L804.7 254.8Z" fill="#08425f" stroke="#08425f"></path><path d="M1141.6 0L804.7 254.8L1138.6 268.8Z" fill="#093c57" stroke="#093c57"></path><path d="M804.7 1219L1107.6 1219L824.7 990.2Z" fill="#082638" stroke="#082638"></path><path d="M574.8 1013.2L804.7 1219L824.7 990.2Z" fill="#064867" stroke="#064867"></path><path d="M1386.4 0L1141.6 0L1138.6 268.8Z" fill="#00101c" stroke="#00101c"></path><path d="M1141.6 0L799.7 0L804.7 254.8Z" fill="#041623" stroke="#041623"></path><path d="M1641.3 1011.2L1666.3 700.4L1424.4 756.4Z" fill="#08425f" stroke="#08425f"></path><path d="M1424.4 756.4L1666.3 700.4L1410.4 468.6Z" fill="#041623" stroke="#041623"></path><path d="M1641.3 1011.2L1424.4 756.4L1397.4 947.2Z" fill="#082031" stroke="#082031"></path><path d="M529.8 520.6L300.9 740.4L597.8 707.4Z" fill="#082638" stroke="#082638"></path><path d="M300.9 486.6L300.9 740.4L529.8 520.6Z" fill="#08425f" stroke="#08425f"></path><path d="M567.8 222.8L300.9 486.6L529.8 520.6Z" fill="#082638" stroke="#082638"></path><path d="M1107.6 1219L1404.4 1219L1157.6 953.2Z" fill="#041623" stroke="#041623"></path><path d="M1666.3 700.4L1709.3 522.6L1410.4 468.6Z" fill="#093148" stroke="#093148"></path><path d="M1415.4 281.8L1386.4 0L1138.6 268.8Z" fill="#064867" stroke="#064867"></path><path d="M1674.3 278.8L1386.4 0L1415.4 281.8Z" fill="#071b2a" stroke="#071b2a"></path><path d="M574.8 1013.2L528.8 1219L804.7 1219Z" fill="#064867" stroke="#064867"></path><path d="M308.9 1219L528.8 1219L574.8 1013.2Z" fill="#093c57" stroke="#093c57"></path><path d="M1404.4 1219L1641.3 1011.2L1397.4 947.2Z" fill="#09364f" stroke="#09364f"></path><path d="M1666.3 700.4L1965.2 748.4L1709.3 522.6Z" fill="#082638" stroke="#082638"></path><path d="M799.7 0L547.8 0L567.8 222.8Z" fill="#071b2a" stroke="#071b2a"></path><path d="M567.8 222.8L267.9 213.8L300.9 486.6Z" fill="#082031" stroke="#082031"></path><path d="M1709.3 522.6L1674.3 278.8L1410.4 468.6Z" fill="#082638" stroke="#082638"></path><path d="M0 703.4L261.9 965.2L300.9 740.4Z" fill="#082638" stroke="#082638"></path><path d="M300.9 740.4L261.9 965.2L574.8 1013.2Z" fill="#09364f" stroke="#09364f"></path><path d="M547.8 0L267.9 213.8L567.8 222.8Z" fill="#093c57" stroke="#093c57"></path><path d="M300.9 486.6L0 703.4L300.9 740.4Z" fill="#093148" stroke="#093148"></path><path d="M261.9 965.2L308.9 1219L574.8 1013.2Z" fill="#064867" stroke="#064867"></path><path d="M547.8 0L287.9 0L267.9 213.8Z" fill="#00101c" stroke="#00101c"></path><path d="M1404.4 1219L1716.3 1219L1641.3 1011.2Z" fill="#071b2a" stroke="#071b2a"></path><path d="M1641.3 1011.2L1965.2 748.4L1666.3 700.4Z" fill="#093c57" stroke="#093c57"></path><path d="M1950.2 280.8L1701.3 0L1674.3 278.8Z" fill="#092b40" stroke="#092b40"></path><path d="M1674.3 278.8L1701.3 0L1386.4 0Z" fill="#064867" stroke="#064867"></path><path d="M0 479.6L0 703.4L300.9 486.6Z" fill="#092b40" stroke="#092b40"></path><path d="M261.9 965.2L0 1219L308.9 1219Z" fill="#093148" stroke="#093148"></path><path d="M0 479.6L300.9 486.6L0 270.8Z" fill="#093148" stroke="#093148"></path><path d="M1983.2 971.2L1965.2 748.4L1641.3 1011.2Z" fill="#092b40" stroke="#092b40"></path><path d="M1709.3 522.6L1950.2 280.8L1674.3 278.8Z" fill="#08425f" stroke="#08425f"></path><path d="M0 270.8L300.9 486.6L267.9 213.8Z" fill="#08425f" stroke="#08425f"></path><path d="M1965.2 748.4L1979.2 450.6L1709.3 522.6Z" fill="#09364f" stroke="#09364f"></path><path d="M1979.2 450.6L1950.2 280.8L1709.3 522.6Z" fill="#08425f" stroke="#08425f"></path><path d="M0 0L0 270.8L267.9 213.8Z" fill="#093148" stroke="#093148"></path><path d="M0 703.4L0 1007.2L261.9 965.2Z" fill="#071b2a" stroke="#071b2a"></path><path d="M1716.3 1219L1983.2 971.2L1641.3 1011.2Z" fill="#00101c" stroke="#00101c"></path><path d="M1965.2 748.4L2231.1 499.6L1979.2 450.6Z" fill="#064867" stroke="#064867"></path><path d="M1716.3 1219L1950.2 1219L1983.2 971.2Z" fill="#09364f" stroke="#09364f"></path><path d="M0 1007.2L0 1219L261.9 965.2Z" fill="#092b40" stroke="#092b40"></path><path d="M2233.1 278.8L1958.2 0L1950.2 280.8Z" fill="#09364f" stroke="#09364f"></path><path d="M1950.2 280.8L1958.2 0L1701.3 0Z" fill="#041623" stroke="#041623"></path><path d="M287.9 0L0 0L267.9 213.8Z" fill="#064867" stroke="#064867"></path><path d="M2234.1 959.2L1965.2 748.4L1983.2 971.2Z" fill="#092b40" stroke="#092b40"></path><path d="M2234.1 959.2L2223.1 720.4L1965.2 748.4Z" fill="#093c57" stroke="#093c57"></path><path d="M1979.2 450.6L2233.1 278.8L1950.2 280.8Z" fill="#064867" stroke="#064867"></path><path d="M2223.1 720.4L2231.1 499.6L1965.2 748.4Z" fill="#09364f" stroke="#09364f"></path><path d="M2254.1 1219L2234.1 959.2L1983.2 971.2Z" fill="#041623" stroke="#041623"></path><path d="M2223.1 720.4L2519 707.4L2231.1 499.6Z" fill="#093c57" stroke="#093c57"></path><path d="M2249.1 0L2233.1 278.8L2519 250.8Z" fill="#082638" stroke="#082638"></path><path d="M2231.1 499.6L2233.1 278.8L1979.2 450.6Z" fill="#092b40" stroke="#092b40"></path><path d="M1950.2 1219L2254.1 1219L1983.2 971.2Z" fill="#08425f" stroke="#08425f"></path><path d="M2234.1 959.2L2519 707.4L2223.1 720.4Z" fill="#093148" stroke="#093148"></path><path d="M2519 480.6L2233.1 278.8L2231.1 499.6Z" fill="#093148" stroke="#093148"></path><path d="M2233.1 278.8L2249.1 0L1958.2 0Z" fill="#041623" stroke="#041623"></path><path d="M2519 1006.2L2519 707.4L2234.1 959.2Z" fill="#064867" stroke="#064867"></path><path d="M2519 707.4L2519 480.6L2231.1 499.6Z" fill="#092b40" stroke="#092b40"></path><path d="M2519 480.6L2519 250.8L2233.1 278.8Z" fill="#093148" stroke="#093148"></path><path d="M2254.1 1219L2519 1006.2L2234.1 959.2Z" fill="#00101c" stroke="#00101c"></path><path d="M2254.1 1219L2519 1219L2519 1006.2Z" fill="#08425f" stroke="#08425f"></path><path d="M2519 250.8L2519 0L2249.1 0Z" fill="#092b40" stroke="#092b40"></path></g></svg>