<svg id="visual" viewBox="0 0 2519 1219" width="2519" height="1219" xmlns="http://www.w3.org/2000/svg" xmlns:xlink="http://www.w3.org/1999/xlink" version="1.1"><g stroke-width="1" stroke-linejoin="bevel"><path d="M1156.6 504.6L1113.6 707.4L1380.4 722.4Z" fill="#f7f2f2" stroke="#f7f2f2"></path><path d="M1380.4 722.4L1373.4 488.6L1156.6 504.6Z" fill="#fdfcfc" stroke="#fdfcfc"></path><path d="M1113.6 707.4L1126.6 956.2L1380.4 722.4Z" fill="#ffffff" stroke="#ffffff"></path><path d="M1126.6 956.2L1423.4 946.2L1380.4 722.4Z" fill="#f2eaea" stroke="#f2eaea"></path><path d="M1380.4 722.4L1661.3 713.4L1373.4 488.6Z" fill="#f4eded" stroke="#f4eded"></path><path d="M1682.3 510.6L1395.4 263.8L1373.4 488.6Z" fill="#f5efef" stroke="#f5efef"></path><path d="M1373.4 488.6L1395.4 263.8L1156.6 504.6Z" fill="#f2eaea" stroke="#f2eaea"></path><path d="M1128.6 232.8L870.7 520.6L1156.6 504.6Z" fill="#f2eaea" stroke="#f2eaea"></path><path d="M1156.6 504.6L870.7 520.6L1113.6 707.4Z" fill="#f1e8e8" stroke="#f1e8e8"></path><path d="M1113.6 707.4L861.7 938.2L1126.6 956.2Z" fill="#efe5e5" stroke="#efe5e5"></path><path d="M1395.4 263.8L1128.6 232.8L1156.6 504.6Z" fill="#f7f2f2" stroke="#f7f2f2"></path><path d="M1423.4 946.2L1661.3 713.4L1380.4 722.4Z" fill="#f5efef" stroke="#f5efef"></path><path d="M1661.3 713.4L1682.3 510.6L1373.4 488.6Z" fill="#fcfafa" stroke="#fcfafa"></path><path d="M870.7 520.6L816.7 764.4L1113.6 707.4Z" fill="#f7f2f2" stroke="#f7f2f2"></path><path d="M816.7 764.4L861.7 938.2L1113.6 707.4Z" fill="#efe5e5" stroke="#efe5e5"></path><path d="M1423.4 946.2L1643.3 1009.2L1661.3 713.4Z" fill="#f1e8e8" stroke="#f1e8e8"></path><path d="M1661.3 713.4L1921.2 738.4L1682.3 510.6Z" fill="#f5efef" stroke="#f5efef"></path><path d="M1384.4 1219L1643.3 1009.2L1423.4 946.2Z" fill="#f5efef" stroke="#f5efef"></path><path d="M1384.4 1219L1423.4 946.2L1126.6 956.2Z" fill="#f7f2f2" stroke="#f7f2f2"></path><path d="M1128.6 232.8L814.7 274.8L870.7 520.6Z" fill="#f5efef" stroke="#f5efef"></path><path d="M870.7 520.6L522.8 704.4L816.7 764.4Z" fill="#f7f2f2" stroke="#f7f2f2"></path><path d="M1682.3 510.6L1655.3 227.8L1395.4 263.8Z" fill="#f7f2f2" stroke="#f7f2f2"></path><path d="M1395.4 263.8L1382.4 0L1128.6 232.8Z" fill="#f7f2f2" stroke="#f7f2f2"></path><path d="M861.7 938.2L1146.6 1219L1126.6 956.2Z" fill="#f1e8e8" stroke="#f1e8e8"></path><path d="M1146.6 1219L1384.4 1219L1126.6 956.2Z" fill="#f4eded" stroke="#f4eded"></path><path d="M1655.3 227.8L1382.4 0L1395.4 263.8Z" fill="#fdfcfc" stroke="#fdfcfc"></path><path d="M1128.6 232.8L1093.6 0L814.7 274.8Z" fill="#fdfcfc" stroke="#fdfcfc"></path><path d="M1382.4 0L1093.6 0L1128.6 232.8Z" fill="#f2eaea" stroke="#f2eaea"></path><path d="M1924.2 973.2L1921.2 738.4L1661.3 713.4Z" fill="#ffffff" stroke="#ffffff"></path><path d="M1682.3 510.6L1919.2 451.6L1655.3 227.8Z" fill="#f2eaea" stroke="#f2eaea"></path><path d="M1921.2 738.4L1919.2 451.6L1682.3 510.6Z" fill="#f9f5f5" stroke="#f9f5f5"></path><path d="M816.7 764.4L536.8 971.2L861.7 938.2Z" fill="#fdfcfc" stroke="#fdfcfc"></path><path d="M861.7 938.2L813.7 1219L1146.6 1219Z" fill="#fdfcfc" stroke="#fdfcfc"></path><path d="M519.8 515.6L522.8 704.4L870.7 520.6Z" fill="#f1e8e8" stroke="#f1e8e8"></path><path d="M536.8 971.2L813.7 1219L861.7 938.2Z" fill="#fdfcfc" stroke="#fdfcfc"></path><path d="M550.8 231.8L519.8 515.6L814.7 274.8Z" fill="#fcfafa" stroke="#fcfafa"></path><path d="M814.7 274.8L519.8 515.6L870.7 520.6Z" fill="#f7f2f2" stroke="#f7f2f2"></path><path d="M1655.3 227.8L1642.3 0L1382.4 0Z" fill="#fcfafa" stroke="#fcfafa"></path><path d="M1963.2 0L1642.3 0L1655.3 227.8Z" fill="#f2eaea" stroke="#f2eaea"></path><path d="M1384.4 1219L1714.3 1219L1643.3 1009.2Z" fill="#f4eded" stroke="#f4eded"></path><path d="M1643.3 1009.2L1924.2 973.2L1661.3 713.4Z" fill="#ffffff" stroke="#ffffff"></path><path d="M1714.3 1219L1924.2 973.2L1643.3 1009.2Z" fill="#fdfcfc" stroke="#fdfcfc"></path><path d="M2201.1 449.6L1971.2 208.8L1919.2 451.6Z" fill="#fcfafa" stroke="#fcfafa"></path><path d="M1093.6 0L812.7 0L814.7 274.8Z" fill="#f9f5f5" stroke="#f9f5f5"></path><path d="M522.8 704.4L536.8 971.2L816.7 764.4Z" fill="#efe5e5" stroke="#efe5e5"></path><path d="M812.7 0L550.8 231.8L814.7 274.8Z" fill="#f4eded" stroke="#f4eded"></path><path d="M2201.1 449.6L1919.2 451.6L2223.1 696.4Z" fill="#f7f2f2" stroke="#f7f2f2"></path><path d="M1919.2 451.6L1971.2 208.8L1655.3 227.8Z" fill="#efe5e5" stroke="#efe5e5"></path><path d="M536.8 971.2L567.8 1219L813.7 1219Z" fill="#fcfafa" stroke="#fcfafa"></path><path d="M812.7 0L583.8 0L550.8 231.8Z" fill="#f5efef" stroke="#f5efef"></path><path d="M1714.3 1219L1988.2 1219L1924.2 973.2Z" fill="#ffffff" stroke="#ffffff"></path><path d="M2223.1 696.4L1919.2 451.6L1921.2 738.4Z" fill="#fdfcfc" stroke="#fdfcfc"></path><path d="M1971.2 208.8L1963.2 0L1655.3 227.8Z" fill="#f7f2f2" stroke="#f7f2f2"></path><path d="M2223.1 696.4L1921.2 738.4L2209.1 988.2Z" fill="#f2eaea" stroke="#f2eaea"></path><path d="M1971.2 208.8L2209.1 0L1963.2 0Z" fill="#fcfafa" stroke="#fcfafa"></path><path d="M2209.1 988.2L1921.2 738.4L1924.2 973.2Z" fill="#ffffff" stroke="#ffffff"></path><path d="M267.9 231.8L286.9 472.6L550.8 231.8Z" fill="#ffffff" stroke="#ffffff"></path><path d="M550.8 231.8L286.9 472.6L519.8 515.6Z" fill="#f7f2f2" stroke="#f7f2f2"></path><path d="M519.8 515.6L286.9 472.6L522.8 704.4Z" fill="#f1e8e8" stroke="#f1e8e8"></path><path d="M522.8 704.4L313.9 976.2L536.8 971.2Z" fill="#f1e8e8" stroke="#f1e8e8"></path><path d="M536.8 971.2L313.9 976.2L567.8 1219Z" fill="#faf7f7" stroke="#faf7f7"></path><path d="M245.9 733.4L313.9 976.2L522.8 704.4Z" fill="#f7f2f2" stroke="#f7f2f2"></path><path d="M286.9 472.6L245.9 733.4L522.8 704.4Z" fill="#fcfafa" stroke="#fcfafa"></path><path d="M1988.2 1219L2209.1 988.2L1924.2 973.2Z" fill="#f7f2f2" stroke="#f7f2f2"></path><path d="M295.9 0L267.9 231.8L550.8 231.8Z" fill="#faf7f7" stroke="#faf7f7"></path><path d="M0 491.6L0 731.4L245.9 733.4Z" fill="#ffffff" stroke="#ffffff"></path><path d="M2519 493.6L2248.1 263.8L2201.1 449.6Z" fill="#ffffff" stroke="#ffffff"></path><path d="M2201.1 449.6L2248.1 263.8L1971.2 208.8Z" fill="#f1e8e8" stroke="#f1e8e8"></path><path d="M2519 493.6L2201.1 449.6L2223.1 696.4Z" fill="#efe5e5" stroke="#efe5e5"></path><path d="M1988.2 1219L2218.1 1219L2209.1 988.2Z" fill="#faf7f7" stroke="#faf7f7"></path><path d="M2209.1 988.2L2519 766.4L2223.1 696.4Z" fill="#f7f2f2" stroke="#f7f2f2"></path><path d="M0 984.2L273.9 1219L313.9 976.2Z" fill="#fcfafa" stroke="#fcfafa"></path><path d="M313.9 976.2L273.9 1219L567.8 1219Z" fill="#f4eded" stroke="#f4eded"></path><path d="M583.8 0L295.9 0L550.8 231.8Z" fill="#f2eaea" stroke="#f2eaea"></path><path d="M2248.1 263.8L2209.1 0L1971.2 208.8Z" fill="#f7f2f2" stroke="#f7f2f2"></path><path d="M0 491.6L245.9 733.4L286.9 472.6Z" fill="#f7f2f2" stroke="#f7f2f2"></path><path d="M245.9 733.4L0 984.2L313.9 976.2Z" fill="#f5efef" stroke="#f5efef"></path><path d="M0 491.6L286.9 472.6L0 274.8Z" fill="#f5efef" stroke="#f5efef"></path><path d="M0 274.8L286.9 472.6L267.9 231.8Z" fill="#f9f5f5" stroke="#f9f5f5"></path><path d="M2519 997.2L2519 766.4L2209.1 988.2Z" fill="#efe5e5" stroke="#efe5e5"></path><path d="M2248.1 263.8L2519 0L2209.1 0Z" fill="#f9f5f5" stroke="#f9f5f5"></path><path d="M2519 766.4L2519 493.6L2223.1 696.4Z" fill="#f9f5f5" stroke="#f9f5f5"></path><path d="M0 731.4L0 984.2L245.9 733.4Z" fill="#f7f2f2" stroke="#f7f2f2"></path><path d="M0 0L0 274.8L267.9 231.8Z" fill="#fcfafa" stroke="#fcfafa"></path><path d="M2519 493.6L2519 280.8L2248.1 263.8Z" fill="#f2eaea" stroke="#f2eaea"></path><path d="M2218.1 1219L2519 997.2L2209.1 988.2Z" fill="#fdfcfc" stroke="#fdfcfc"></path><path d="M0 984.2L0 1219L273.9 1219Z" fill="#fcfafa" stroke="#fcfafa"></path><path d="M2218.1 1219L2519 1219L2519 997.2Z" fill="#f2eaea" stroke="#f2eaea"></path><path d="M295.9 0L0 0L267.9 231.8Z" fill="#efe5e5" stroke="#efe5e5"></path><path d="M2519 280.8L2519 0L2248.1 263.8Z" fill="#faf7f7" stroke="#faf7f7"></path></g></svg>