<svg id="visual" viewBox="0 0 2519 1219" width="2519" height="1219" xmlns="http://www.w3.org/2000/svg" xmlns:xlink="http://www.w3.org/1999/xlink" version="1.1"><g stroke-width="8" stroke-linejoin="bevel"><path d="M1392.4 698.4L1378.4 454.6L1137.6 473.6Z" fill="#638ca5" stroke="#FFFFFF"></path><path d="M1137.6 473.6L1149.6 755.4L1392.4 698.4Z" fill="#426a87" stroke="#FFFFFF"></path><path d="M1700.3 515.6L1424.4 269.8L1378.4 454.6Z" fill="#2d5573" stroke="#FFFFFF"></path><path d="M1378.4 454.6L1087.6 244.8L1137.6 473.6Z" fill="#4d7591" stroke="#FFFFFF"></path><path d="M1424.4 269.8L1087.6 244.8L1378.4 454.6Z" fill="#38607d" stroke="#FFFFFF"></path><path d="M825.7 742.4L1094.6 993.2L1149.6 755.4Z" fill="#90bacf" stroke="#FFFFFF"></path><path d="M1392.4 698.4L1700.3 515.6L1378.4 454.6Z" fill="#58819b" stroke="#FFFFFF"></path><path d="M825.7 742.4L1149.6 755.4L1137.6 473.6Z" fill="#6e97af" stroke="#FFFFFF"></path><path d="M1149.6 755.4L1396.4 1010.2L1392.4 698.4Z" fill="#9cc6da" stroke="#FFFFFF"></path><path d="M1392.4 698.4L1697.3 770.4L1700.3 515.6Z" fill="#90bacf" stroke="#FFFFFF"></path><path d="M1094.6 993.2L1396.4 1010.2L1149.6 755.4Z" fill="#638ca5" stroke="#FFFFFF"></path><path d="M1668.3 977.2L1697.3 770.4L1392.4 698.4Z" fill="#85aec5" stroke="#FFFFFF"></path><path d="M802.7 483.6L825.7 742.4L1137.6 473.6Z" fill="#90bacf" stroke="#FFFFFF"></path><path d="M874.7 278.8L802.7 483.6L1137.6 473.6Z" fill="#426a87" stroke="#FFFFFF"></path><path d="M1087.6 244.8L874.7 278.8L1137.6 473.6Z" fill="#38607d" stroke="#FFFFFF"></path><path d="M1700.3 515.6L1689.3 254.8L1424.4 269.8Z" fill="#426a87" stroke="#FFFFFF"></path><path d="M1424.4 269.8L1130.6 0L1087.6 244.8Z" fill="#638ca5" stroke="#FFFFFF"></path><path d="M1396.4 1010.2L1668.3 977.2L1392.4 698.4Z" fill="#79a3ba" stroke="#FFFFFF"></path><path d="M1413.4 0L1130.6 0L1424.4 269.8Z" fill="#2d5573" stroke="#FFFFFF"></path><path d="M1087.6 244.8L850.7 0L874.7 278.8Z" fill="#90bacf" stroke="#FFFFFF"></path><path d="M1665.3 0L1413.4 0L1424.4 269.8Z" fill="#426a87" stroke="#FFFFFF"></path><path d="M537.8 703.4L800.7 967.2L825.7 742.4Z" fill="#85aec5" stroke="#FFFFFF"></path><path d="M825.7 742.4L800.7 967.2L1094.6 993.2Z" fill="#638ca5" stroke="#FFFFFF"></path><path d="M868.7 1219L1132.6 1219L1094.6 993.2Z" fill="#38607d" stroke="#FFFFFF"></path><path d="M1094.6 993.2L1132.6 1219L1396.4 1010.2Z" fill="#85aec5" stroke="#FFFFFF"></path><path d="M1396.4 1010.2L1428.4 1219L1668.3 977.2Z" fill="#79a3ba" stroke="#FFFFFF"></path><path d="M1132.6 1219L1428.4 1219L1396.4 1010.2Z" fill="#4d7591" stroke="#FFFFFF"></path><path d="M1953.2 973.2L1697.3 770.4L1668.3 977.2Z" fill="#2d5573" stroke="#FFFFFF"></path><path d="M1953.2 973.2L1921.2 725.4L1697.3 770.4Z" fill="#2d5573" stroke="#FFFFFF"></path><path d="M1697.3 770.4L1921.2 725.4L1700.3 515.6Z" fill="#638ca5" stroke="#FFFFFF"></path><path d="M1700.3 515.6L1930.2 281.8L1689.3 254.8Z" fill="#426a87" stroke="#FFFFFF"></path><path d="M593.8 278.8L586.8 490.6L802.7 483.6Z" fill="#90bacf" stroke="#FFFFFF"></path><path d="M802.7 483.6L586.8 490.6L825.7 742.4Z" fill="#9cc6da" stroke="#FFFFFF"></path><path d="M593.8 278.8L802.7 483.6L874.7 278.8Z" fill="#79a3ba" stroke="#FFFFFF"></path><path d="M1689.3 254.8L1665.3 0L1424.4 269.8Z" fill="#85aec5" stroke="#FFFFFF"></path><path d="M1956.2 0L1665.3 0L1689.3 254.8Z" fill="#638ca5" stroke="#FFFFFF"></path><path d="M1130.6 0L850.7 0L1087.6 244.8Z" fill="#58819b" stroke="#FFFFFF"></path><path d="M1921.2 725.4L1980.2 481.6L1700.3 515.6Z" fill="#85aec5" stroke="#FFFFFF"></path><path d="M1980.2 481.6L1930.2 281.8L1700.3 515.6Z" fill="#38607d" stroke="#FFFFFF"></path><path d="M850.7 0L593.8 278.8L874.7 278.8Z" fill="#638ca5" stroke="#FFFFFF"></path><path d="M586.8 490.6L537.8 703.4L825.7 742.4Z" fill="#90bacf" stroke="#FFFFFF"></path><path d="M284.9 480.6L537.8 703.4L586.8 490.6Z" fill="#85aec5" stroke="#FFFFFF"></path><path d="M800.7 967.2L868.7 1219L1094.6 993.2Z" fill="#6e97af" stroke="#FFFFFF"></path><path d="M561.8 1219L868.7 1219L800.7 967.2Z" fill="#85aec5" stroke="#FFFFFF"></path><path d="M1428.4 1219L1673.3 1219L1668.3 977.2Z" fill="#90bacf" stroke="#FFFFFF"></path><path d="M1929.2 1219L1953.2 973.2L1668.3 977.2Z" fill="#4d7591" stroke="#FFFFFF"></path><path d="M2229.1 718.4L2215.1 502.6L1980.2 481.6Z" fill="#426a87" stroke="#FFFFFF"></path><path d="M537.8 703.4L575.8 1004.2L800.7 967.2Z" fill="#79a3ba" stroke="#FFFFFF"></path><path d="M850.7 0L582.8 0L593.8 278.8Z" fill="#79a3ba" stroke="#FFFFFF"></path><path d="M593.8 278.8L284.9 480.6L586.8 490.6Z" fill="#2d5573" stroke="#FFFFFF"></path><path d="M2228.1 273.8L1956.2 0L1930.2 281.8Z" fill="#79a3ba" stroke="#FFFFFF"></path><path d="M1930.2 281.8L1956.2 0L1689.3 254.8Z" fill="#6e97af" stroke="#FFFFFF"></path><path d="M1673.3 1219L1929.2 1219L1668.3 977.2Z" fill="#2d5573" stroke="#FFFFFF"></path><path d="M299.9 943.2L561.8 1219L575.8 1004.2Z" fill="#426a87" stroke="#FFFFFF"></path><path d="M575.8 1004.2L561.8 1219L800.7 967.2Z" fill="#38607d" stroke="#FFFFFF"></path><path d="M2229.1 718.4L1980.2 481.6L1921.2 725.4Z" fill="#4d7591" stroke="#FFFFFF"></path><path d="M1980.2 481.6L2228.1 273.8L1930.2 281.8Z" fill="#79a3ba" stroke="#FFFFFF"></path><path d="M2229.1 718.4L1921.2 725.4L2226.1 941.2Z" fill="#6e97af" stroke="#FFFFFF"></path><path d="M2226.1 941.2L1921.2 725.4L1953.2 973.2Z" fill="#638ca5" stroke="#FFFFFF"></path><path d="M300.9 228.8L284.9 480.6L593.8 278.8Z" fill="#79a3ba" stroke="#FFFFFF"></path><path d="M537.8 703.4L299.9 943.2L575.8 1004.2Z" fill="#58819b" stroke="#FFFFFF"></path><path d="M2519 510.6L2228.1 273.8L2215.1 502.6Z" fill="#9cc6da" stroke="#FFFFFF"></path><path d="M2215.1 502.6L2228.1 273.8L1980.2 481.6Z" fill="#79a3ba" stroke="#FFFFFF"></path><path d="M284.9 480.6L250.9 694.4L537.8 703.4Z" fill="#58819b" stroke="#FFFFFF"></path><path d="M2249.1 1219L2226.1 941.2L1953.2 973.2Z" fill="#2d5573" stroke="#FFFFFF"></path><path d="M582.8 0L300.9 228.8L593.8 278.8Z" fill="#85aec5" stroke="#FFFFFF"></path><path d="M284.9 480.6L0 459.6L250.9 694.4Z" fill="#9cc6da" stroke="#FFFFFF"></path><path d="M250.9 694.4L299.9 943.2L537.8 703.4Z" fill="#6e97af" stroke="#FFFFFF"></path><path d="M2228.1 273.8L2215.1 0L1956.2 0Z" fill="#79a3ba" stroke="#FFFFFF"></path><path d="M1929.2 1219L2249.1 1219L1953.2 973.2Z" fill="#426a87" stroke="#FFFFFF"></path><path d="M2519 697.4L2519 510.6L2229.1 718.4Z" fill="#6e97af" stroke="#FFFFFF"></path><path d="M2229.1 718.4L2519 510.6L2215.1 502.6Z" fill="#90bacf" stroke="#FFFFFF"></path><path d="M582.8 0L241.9 0L300.9 228.8Z" fill="#58819b" stroke="#FFFFFF"></path><path d="M300.9 228.8L0 459.6L284.9 480.6Z" fill="#85aec5" stroke="#FFFFFF"></path><path d="M0 944.2L299.9 943.2L250.9 694.4Z" fill="#4d7591" stroke="#FFFFFF"></path><path d="M0 944.2L241.9 1219L299.9 943.2Z" fill="#58819b" stroke="#FFFFFF"></path><path d="M299.9 943.2L241.9 1219L561.8 1219Z" fill="#58819b" stroke="#FFFFFF"></path><path d="M2519 697.4L2229.1 718.4L2226.1 941.2Z" fill="#426a87" stroke="#FFFFFF"></path><path d="M2228.1 273.8L2519 0L2215.1 0Z" fill="#58819b" stroke="#FFFFFF"></path><path d="M2519 1005.2L2519 697.4L2226.1 941.2Z" fill="#58819b" stroke="#FFFFFF"></path><path d="M0 230.8L0 459.6L300.9 228.8Z" fill="#6e97af" stroke="#FFFFFF"></path><path d="M0 459.6L0 709.4L250.9 694.4Z" fill="#638ca5" stroke="#FFFFFF"></path><path d="M2519 510.6L2519 267.8L2228.1 273.8Z" fill="#6e97af" stroke="#FFFFFF"></path><path d="M241.9 0L0 230.8L300.9 228.8Z" fill="#638ca5" stroke="#FFFFFF"></path><path d="M0 709.4L0 944.2L250.9 694.4Z" fill="#90bacf" stroke="#FFFFFF"></path><path d="M2249.1 1219L2519 1005.2L2226.1 941.2Z" fill="#79a3ba" stroke="#FFFFFF"></path><path d="M2519 267.8L2519 0L2228.1 273.8Z" fill="#6e97af" stroke="#FFFFFF"></path><path d="M241.9 0L0 0L0 230.8Z" fill="#85aec5" stroke="#FFFFFF"></path><path d="M2249.1 1219L2519 1219L2519 1005.2Z" fill="#38607d" stroke="#FFFFFF"></path><path d="M0 944.2L0 1219L241.9 1219Z" fill="#4d7591" stroke="#FFFFFF"></path></g></svg>